<?xml version="1.0" encoding="UTF-8" standalone="no"?>
<!DOCTYPE svg PUBLIC "-//W3C//DTD SVG 1.1//EN" "http://www.w3.org/Graphics/SVG/1.1/DTD/svg11.dtd">
<svg width="100%" height="100%" viewBox="0 0 375 100" version="1.1" xmlns="http://www.w3.org/2000/svg" xmlns:xlink="http://www.w3.org/1999/xlink" xml:space="preserve" xmlns:serif="http://www.serif.com/" style="fill-rule:evenodd;clip-rule:evenodd;stroke-miterlimit:2;">
    <g id="HELMET" transform="matrix(0.230413,0,0,0.230413,128.358,7.20851)">
        <path d="M56.8,152.5C46.8,149.8 38.6,143.2 25.3,127C15.3,114.8 12.2,109.9 10.1,102.8C7.2,93 6.9,90.1 6.9,71C7,46.2 8.6,39.7 17.9,27.5C29.1,12.6 40.6,8 65.8,8C79.8,8 88.8,9.2 96.7,12.1C104.5,14.9 115.5,26.1 120.5,36.3C124.9,45.4 126,52.6 126,72C126,97 123.9,105.4 114.2,118.6C106.5,129.1 92.1,144.1 86,148C77.2,153.6 66.7,155.3 56.8,152.5ZM63.1,143.2C65.5,142.6 68.3,142.7 72,143.7C74.9,144.4 78.1,144.8 79,144.5C79.9,144.2 85.5,139 91.5,132.9C99.4,124.9 102.8,122 104.2,122.3C108.1,123.4 118.1,106.7 120.1,95.7C121.5,87.6 120.9,50.5 119.3,48.8C118.3,47.9 117.7,47.9 116.8,48.8C115.9,49.7 115.9,50 116.8,50C117.7,50 118,55 118,69.6C118,92.9 117.7,94 108.6,100.4C97.9,108 82.1,112.2 78.1,108.6C77,107.6 74,106.2 71.4,105.4C67.2,104.2 66,104.2 61.4,105.5C58.6,106.3 55.7,107.7 55,108.5C51.4,112.8 33.4,107.7 22.4,99.3C15.4,94 14.8,91.9 14.2,71.1C13.8,54.4 13.9,52.2 15.4,50.7C17,49.1 17,48.9 15.5,48.4C14.6,48 13.7,48 13.4,48.3C11.9,49.8 11.3,63.6 12,80.1C12.6,96.5 13,99.2 15.3,104.7C19.5,115 25.7,123.1 28.7,122.4C30,122.1 34,125.4 42,133.5C54.5,146.2 53.3,145.6 63.1,143.2ZM93.8,59.5C103.7,57.6 116.6,51.3 114.7,49.4C114.4,49 114.8,47.4 115.6,45.8C116.5,44.2 116.9,42.1 116.5,41.2C115.4,38 107.5,27 106.4,27C105.8,27 104.7,28.3 104,29.9C102.9,32.5 99,37.1 99,35.8C99,35.5 99.7,33.6 100.5,31.7C101.3,29.7 102,26.5 102,24.7C102,21.9 101.4,21 98.6,19.5C95.7,17.9 94.8,17.8 92.2,18.9C89.7,20 88.4,19.9 85.3,18.8C80,17 52.7,17 48.2,18.9C45.4,20.1 44.3,20.1 40.9,19C37.4,17.8 36.5,17.8 34.2,19.2C30.9,21.2 30.2,26.1 32.5,31.6C35.1,37.9 32.5,36.9 28.7,30.2L26.2,25.8L21.1,33.1C18.3,37.1 16,41 16,41.7C16,42.5 16.7,44.4 17.5,46.1C18.4,47.7 18.8,49.5 18.5,50C17.6,51.5 27.7,56.7 34.9,58.5C38.5,59.4 44.4,60.5 48,61C56.9,62.2 84.9,61.3 93.8,59.5Z" style="fill:rgb(253,0,1);fill-rule:nonzero;"/>
        <path d="M49.6,128.6C42.6,124.6 36.4,120.7 36,119.9C34.7,117.5 34,112 35,112C35.5,112 39.6,113.2 44.2,114.7C51.7,117.2 53.8,117.5 66.5,117.4C79,117.4 81.4,117.1 88.8,114.6C93.4,113.1 97.4,112.1 97.7,112.4C98.8,113.5 96.8,119.8 94.7,121.7C93.5,122.9 90,125 87,126.5C84,128 79,130.7 75.9,132.6C67.4,137.7 65,137.3 49.6,128.6Z" style="fill:rgb(253,0,1);fill-rule:nonzero;"/>
    </g>
    <g transform="matrix(43.2,0,0,48,158.97,42.6518)">
        <path d="M0.325,-0.636L0.078,-0.636L0.091,-0.7L0.658,-0.7L0.644,-0.636L0.398,-0.636L0.271,-0L0.198,-0L0.325,-0.636Z" style="fill:rgb(254,0,0);fill-rule:nonzero;stroke:rgb(254,0,0);stroke-width:0.03px;"/>
    </g>
    <g transform="matrix(43.2,0,0,48,86.0069,42.3638)">
        <path d="M0.929,-0.7L0.789,-0L0.718,-0L0.829,-0.555L0.467,-0.089L0.432,-0.089L0.245,-0.564L0.133,-0L0.062,-0L0.202,-0.7L0.262,-0.7L0.464,-0.18L0.864,-0.7L0.929,-0.7Z" style="fill:rgb(254,0,0);fill-rule:nonzero;stroke:rgb(254,0,0);stroke-width:0.03px;"/>
    </g>
    <g id="HELMET1" serif:id="HELMET" transform="matrix(0.230413,0,0,0.230413,188.293,7.20851)">
        <path d="M56.8,152.5C46.8,149.8 38.6,143.2 25.3,127C15.3,114.8 12.2,109.9 10.1,102.8C7.2,93 6.9,90.1 6.9,71C7,46.2 8.6,39.7 17.9,27.5C29.1,12.6 40.6,8 65.8,8C79.8,8 88.8,9.2 96.7,12.1C104.5,14.9 115.5,26.1 120.5,36.3C124.9,45.4 126,52.6 126,72C126,97 123.9,105.4 114.2,118.6C106.5,129.1 92.1,144.1 86,148C77.2,153.6 66.7,155.3 56.8,152.5ZM63.1,143.2C65.5,142.6 68.3,142.7 72,143.7C74.9,144.4 78.1,144.8 79,144.5C79.9,144.2 85.5,139 91.5,132.9C99.4,124.9 102.8,122 104.2,122.3C108.1,123.4 118.1,106.7 120.1,95.7C121.5,87.6 120.9,50.5 119.3,48.8C118.3,47.9 117.7,47.9 116.8,48.8C115.9,49.7 115.9,50 116.8,50C117.7,50 118,55 118,69.6C118,92.9 117.7,94 108.6,100.4C97.9,108 82.1,112.2 78.1,108.6C77,107.6 74,106.2 71.4,105.4C67.2,104.2 66,104.2 61.4,105.5C58.6,106.3 55.7,107.7 55,108.5C51.4,112.8 33.4,107.7 22.4,99.3C15.4,94 14.8,91.9 14.2,71.1C13.8,54.4 13.9,52.2 15.4,50.7C17,49.1 17,48.9 15.5,48.4C14.6,48 13.7,48 13.4,48.3C11.9,49.8 11.3,63.6 12,80.1C12.6,96.5 13,99.2 15.3,104.7C19.5,115 25.7,123.1 28.7,122.4C30,122.1 34,125.4 42,133.5C54.5,146.2 53.3,145.6 63.1,143.2ZM93.8,59.5C103.7,57.6 116.6,51.3 114.7,49.4C114.4,49 114.8,47.4 115.6,45.8C116.5,44.2 116.9,42.1 116.5,41.2C115.4,38 107.5,27 106.4,27C105.8,27 104.7,28.3 104,29.9C102.9,32.5 99,37.1 99,35.8C99,35.5 99.7,33.6 100.5,31.7C101.3,29.7 102,26.5 102,24.7C102,21.9 101.4,21 98.6,19.5C95.7,17.9 94.8,17.8 92.2,18.9C89.7,20 88.4,19.9 85.3,18.8C80,17 52.7,17 48.2,18.9C45.4,20.1 44.3,20.1 40.9,19C37.4,17.8 36.5,17.8 34.2,19.2C30.9,21.2 30.2,26.1 32.5,31.6C35.1,37.9 32.5,36.9 28.7,30.2L26.2,25.8L21.1,33.1C18.3,37.1 16,41 16,41.7C16,42.5 16.7,44.4 17.5,46.1C18.4,47.7 18.8,49.5 18.5,50C17.6,51.5 27.7,56.7 34.9,58.5C38.5,59.4 44.4,60.5 48,61C56.9,62.2 84.9,61.3 93.8,59.5Z" style="fill:rgb(253,0,1);fill-rule:nonzero;"/>
        <path d="M49.6,128.6C42.6,124.6 36.4,120.7 36,119.9C34.7,117.5 34,112 35,112C35.5,112 39.6,113.2 44.2,114.7C51.7,117.2 53.8,117.5 66.5,117.4C79,117.4 81.4,117.1 88.8,114.6C93.4,113.1 97.4,112.1 97.7,112.4C98.8,113.5 96.8,119.8 94.7,121.7C93.5,122.9 90,125 87,126.5C84,128 79,130.7 75.9,132.6C67.4,137.7 65,137.3 49.6,128.6Z" style="fill:rgb(253,0,1);fill-rule:nonzero;"/>
    </g>
    <g transform="matrix(0.25,0,0,0.25,146.073,-21.9512)">
        <g transform="matrix(128,0,0,128,289.072,451.125)">
            <path d="M0.058,-0L0.079,-0.1L0.179,-0.1L0.157,-0L0.058,-0Z" style="fill:rgb(0,113,189);fill-rule:nonzero;stroke:rgb(0,113,189);stroke-width:0.03px;stroke-linecap:square;"/>
        </g>
        <g transform="matrix(128,0,0,128,319.515,451.125)">
            <path d="M0.603,-0.252L0.698,-0.239C0.668,-0.156 0.624,-0.094 0.567,-0.051C0.51,-0.009 0.445,0.012 0.374,0.012C0.287,0.012 0.218,-0.014 0.167,-0.067C0.116,-0.12 0.091,-0.196 0.091,-0.295C0.091,-0.424 0.13,-0.531 0.207,-0.615C0.276,-0.69 0.362,-0.728 0.464,-0.728C0.54,-0.728 0.602,-0.708 0.649,-0.667C0.696,-0.626 0.723,-0.572 0.73,-0.503L0.641,-0.495C0.632,-0.546 0.612,-0.585 0.583,-0.611C0.553,-0.636 0.515,-0.649 0.469,-0.649C0.381,-0.649 0.31,-0.61 0.256,-0.532C0.209,-0.465 0.186,-0.386 0.186,-0.293C0.186,-0.22 0.204,-0.164 0.24,-0.125C0.276,-0.086 0.323,-0.067 0.381,-0.067C0.431,-0.067 0.476,-0.083 0.516,-0.115C0.556,-0.147 0.585,-0.193 0.603,-0.252Z" style="fill:rgb(0,113,189);fill-rule:nonzero;stroke:rgb(0,113,189);stroke-width:0.03px;stroke-linecap:square;"/>
        </g>
        <g transform="matrix(128,0,0,128,406.832,451.125)">
            <path d="M0.091,-0.3C0.091,-0.427 0.128,-0.531 0.202,-0.61C0.276,-0.689 0.365,-0.728 0.47,-0.728C0.559,-0.728 0.632,-0.699 0.688,-0.641C0.744,-0.583 0.772,-0.505 0.772,-0.407C0.772,-0.338 0.758,-0.273 0.73,-0.213C0.709,-0.169 0.682,-0.13 0.65,-0.098C0.618,-0.066 0.583,-0.041 0.546,-0.023C0.498,0 0.446,0.012 0.391,0.012C0.334,0.012 0.282,-0.001 0.235,-0.029C0.188,-0.056 0.152,-0.094 0.128,-0.143C0.103,-0.192 0.091,-0.244 0.091,-0.3ZM0.186,-0.295C0.186,-0.253 0.194,-0.214 0.212,-0.179C0.229,-0.144 0.255,-0.117 0.29,-0.097C0.324,-0.077 0.36,-0.067 0.398,-0.067C0.435,-0.067 0.47,-0.076 0.503,-0.093C0.537,-0.11 0.566,-0.135 0.593,-0.166C0.619,-0.197 0.639,-0.235 0.655,-0.281C0.67,-0.326 0.677,-0.371 0.677,-0.415C0.677,-0.486 0.657,-0.543 0.617,-0.585C0.578,-0.627 0.528,-0.648 0.47,-0.648C0.395,-0.648 0.329,-0.616 0.271,-0.552C0.214,-0.489 0.186,-0.403 0.186,-0.295Z" style="fill:rgb(0,113,189);fill-rule:nonzero;stroke:rgb(0,113,189);stroke-width:0.03px;stroke-linecap:square;"/>
        </g>
        <g transform="matrix(128,0,0,128,501.275,451.125)">
            <path d="M0.058,-0L0.079,-0.1L0.179,-0.1L0.157,-0L0.058,-0Z" style="fill:rgb(0,113,189);fill-rule:nonzero;stroke:rgb(0,113,189);stroke-width:0.03px;stroke-linecap:square;"/>
        </g>
        <g transform="matrix(128,0,0,128,531.717,451.125)">
            <path d="M0.198,-0.716L0.294,-0.716L0.202,-0.276C0.195,-0.239 0.191,-0.212 0.191,-0.195C0.191,-0.156 0.206,-0.125 0.236,-0.102C0.267,-0.079 0.305,-0.067 0.351,-0.067C0.387,-0.067 0.421,-0.075 0.452,-0.092C0.484,-0.109 0.509,-0.133 0.527,-0.166C0.545,-0.199 0.562,-0.25 0.576,-0.322L0.659,-0.716L0.754,-0.716L0.667,-0.296C0.652,-0.224 0.632,-0.168 0.608,-0.126C0.583,-0.084 0.55,-0.05 0.506,-0.025C0.463,0 0.413,0.013 0.355,0.013C0.301,0.013 0.255,0.004 0.215,-0.014C0.176,-0.032 0.146,-0.057 0.126,-0.088C0.107,-0.12 0.097,-0.156 0.097,-0.196C0.097,-0.221 0.103,-0.264 0.117,-0.325L0.198,-0.716Z" style="fill:rgb(0,113,189);fill-rule:nonzero;stroke:rgb(0,113,189);stroke-width:0.03px;stroke-linecap:square;"/>
        </g>
        <g transform="matrix(128,0,0,128,619.035,451.125)">
            <path d="M0.044,-0L0.194,-0.716L0.29,-0.716L0.218,-0.371L0.606,-0.716L0.741,-0.716L0.409,-0.424L0.652,-0L0.545,-0L0.339,-0.363L0.189,-0.232L0.14,-0L0.044,-0Z" style="fill:rgb(0,113,189);fill-rule:nonzero;stroke:rgb(0,113,189);stroke-width:0.03px;stroke-linecap:square;"/>
        </g>
    </g>
    <g transform="matrix(0.25,0,0,0.25,-105.228,-75.7949)">
        <g transform="matrix(172.8,0,0,192,595.934,666.499)">
            <path d="M0.574,-0.361C0.61,-0.351 0.638,-0.334 0.657,-0.31C0.676,-0.286 0.686,-0.255 0.686,-0.217C0.686,-0.147 0.66,-0.093 0.607,-0.056C0.554,-0.019 0.48,-0 0.387,-0L0.062,-0L0.202,-0.7L0.501,-0.7C0.569,-0.7 0.622,-0.687 0.66,-0.662C0.697,-0.637 0.716,-0.6 0.716,-0.551C0.716,-0.504 0.703,-0.464 0.677,-0.431C0.651,-0.398 0.617,-0.374 0.574,-0.361ZM0.263,-0.639L0.212,-0.385L0.435,-0.385C0.497,-0.385 0.547,-0.398 0.584,-0.425C0.621,-0.451 0.64,-0.489 0.64,-0.538C0.64,-0.572 0.627,-0.597 0.601,-0.614C0.574,-0.631 0.536,-0.639 0.487,-0.639L0.263,-0.639ZM0.393,-0.061C0.464,-0.061 0.518,-0.074 0.556,-0.101C0.594,-0.128 0.613,-0.166 0.613,-0.216C0.613,-0.255 0.6,-0.282 0.573,-0.299C0.546,-0.316 0.505,-0.324 0.45,-0.324L0.2,-0.324L0.148,-0.061L0.393,-0.061Z" style="fill:rgb(254,0,0);fill-rule:nonzero;stroke:rgb(254,0,0);stroke-width:0.03px;"/>
        </g>
        <g transform="matrix(172.8,0,0,192,719.313,666.499)">
            <path d="M0.361,0.006C0.281,0.006 0.219,-0.014 0.174,-0.054C0.13,-0.094 0.108,-0.15 0.108,-0.221C0.108,-0.248 0.111,-0.274 0.116,-0.299L0.196,-0.7L0.269,-0.7L0.189,-0.301C0.184,-0.273 0.181,-0.249 0.181,-0.23C0.181,-0.174 0.197,-0.132 0.229,-0.103C0.261,-0.074 0.307,-0.06 0.367,-0.06C0.436,-0.06 0.491,-0.08 0.532,-0.118C0.573,-0.158 0.601,-0.218 0.618,-0.301L0.698,-0.7L0.77,-0.7L0.69,-0.296C0.649,-0.095 0.54,0.006 0.361,0.006Z" style="fill:rgb(254,0,0);fill-rule:nonzero;stroke:rgb(254,0,0);stroke-width:0.03px;"/>
        </g>
        <g transform="matrix(172.8,0,0,192,849.259,666.499)">
            <path d="M0.348,-0.236L0.301,-0L0.228,-0L0.276,-0.241L0.088,-0.7L0.162,-0.7L0.324,-0.306L0.642,-0.7L0.721,-0.7L0.348,-0.236Z" style="fill:rgb(254,0,0);fill-rule:nonzero;stroke:rgb(254,0,0);stroke-width:0.03px;"/>
        </g>
        <g transform="matrix(172.8,0,0,192,952.075,666.499)">
            <path d="M0.262,-0.636L0.212,-0.387L0.575,-0.387L0.563,-0.324L0.2,-0.324L0.148,-0.064L0.569,-0.064L0.556,-0L0.062,-0L0.202,-0.7L0.682,-0.7L0.669,-0.636L0.262,-0.636Z" style="fill:rgb(254,0,0);fill-rule:nonzero;stroke:rgb(254,0,0);stroke-width:0.03px;"/>
        </g>
        <g transform="matrix(172.8,0,0,192,1060.77,666.499)">
            <path d="M0.704,-0.502C0.704,-0.431 0.685,-0.372 0.648,-0.327C0.61,-0.281 0.557,-0.25 0.489,-0.234L0.621,-0L0.541,-0L0.415,-0.223C0.408,-0.222 0.396,-0.222 0.379,-0.222L0.18,-0.222L0.136,-0L0.062,-0L0.202,-0.7L0.454,-0.7C0.533,-0.7 0.595,-0.683 0.639,-0.648C0.682,-0.613 0.704,-0.565 0.704,-0.502ZM0.381,-0.286C0.461,-0.286 0.523,-0.304 0.566,-0.339C0.609,-0.374 0.63,-0.426 0.63,-0.495C0.63,-0.541 0.614,-0.576 0.583,-0.6C0.552,-0.624 0.507,-0.636 0.449,-0.636L0.263,-0.636L0.192,-0.286L0.381,-0.286Z" style="fill:rgb(254,0,0);fill-rule:nonzero;stroke:rgb(254,0,0);stroke-width:0.03px;"/>
        </g>
        <g transform="matrix(172.8,0,0,192,1178.79,666.499)">
            <path d="M0.266,0.006C0.215,0.006 0.166,-0.002 0.118,-0.019C0.071,-0.036 0.036,-0.057 0.012,-0.083L0.048,-0.141C0.071,-0.116 0.104,-0.095 0.145,-0.08C0.186,-0.065 0.229,-0.057 0.273,-0.057C0.335,-0.057 0.385,-0.069 0.423,-0.094C0.46,-0.118 0.479,-0.152 0.479,-0.195C0.479,-0.218 0.472,-0.237 0.458,-0.252C0.444,-0.267 0.426,-0.279 0.405,-0.288C0.384,-0.297 0.355,-0.306 0.318,-0.317C0.275,-0.33 0.239,-0.342 0.213,-0.354C0.186,-0.365 0.163,-0.383 0.143,-0.406C0.125,-0.429 0.115,-0.458 0.115,-0.495C0.115,-0.538 0.127,-0.576 0.151,-0.608C0.174,-0.639 0.207,-0.664 0.25,-0.681C0.292,-0.698 0.34,-0.706 0.395,-0.706C0.437,-0.706 0.477,-0.701 0.515,-0.691C0.553,-0.68 0.585,-0.665 0.612,-0.646L0.581,-0.586C0.556,-0.605 0.527,-0.619 0.494,-0.628C0.461,-0.638 0.427,-0.643 0.391,-0.643C0.33,-0.643 0.28,-0.63 0.243,-0.605C0.206,-0.58 0.187,-0.545 0.187,-0.502C0.187,-0.478 0.194,-0.458 0.209,-0.443C0.224,-0.428 0.242,-0.416 0.264,-0.406C0.285,-0.398 0.314,-0.388 0.351,-0.377C0.394,-0.364 0.429,-0.352 0.456,-0.341C0.483,-0.329 0.505,-0.312 0.524,-0.291C0.543,-0.269 0.552,-0.24 0.552,-0.205C0.552,-0.161 0.54,-0.123 0.516,-0.092C0.491,-0.06 0.458,-0.036 0.414,-0.019C0.372,-0.002 0.322,0.006 0.266,0.006Z" style="fill:rgb(254,0,0);fill-rule:nonzero;stroke:rgb(254,0,0);stroke-width:0.03px;"/>
        </g>
    </g>
    <g transform="matrix(0.25,0,0,0.25,69.5872,-123.973)">
        <g transform="matrix(172.8,0,0,192,595.934,666.499)">
            <path d="M0.704,-0.502C0.704,-0.431 0.685,-0.372 0.648,-0.327C0.61,-0.281 0.557,-0.25 0.489,-0.234L0.621,-0L0.541,-0L0.415,-0.223C0.408,-0.222 0.396,-0.222 0.379,-0.222L0.18,-0.222L0.136,-0L0.062,-0L0.202,-0.7L0.454,-0.7C0.533,-0.7 0.595,-0.683 0.639,-0.648C0.682,-0.613 0.704,-0.565 0.704,-0.502ZM0.381,-0.286C0.461,-0.286 0.523,-0.304 0.566,-0.339C0.609,-0.374 0.63,-0.426 0.63,-0.495C0.63,-0.541 0.614,-0.576 0.583,-0.6C0.552,-0.624 0.507,-0.636 0.449,-0.636L0.263,-0.636L0.192,-0.286L0.381,-0.286Z" style="fill:rgb(254,0,0);fill-rule:nonzero;stroke:rgb(254,0,0);stroke-width:0.03px;"/>
        </g>
        <g transform="matrix(172.8,0,0,192,713.956,666.499)">
            <path d="M0.574,-0.361C0.61,-0.351 0.638,-0.334 0.657,-0.31C0.676,-0.286 0.686,-0.255 0.686,-0.217C0.686,-0.147 0.66,-0.093 0.607,-0.056C0.554,-0.019 0.48,-0 0.387,-0L0.062,-0L0.202,-0.7L0.501,-0.7C0.569,-0.7 0.622,-0.687 0.66,-0.662C0.697,-0.637 0.716,-0.6 0.716,-0.551C0.716,-0.504 0.703,-0.464 0.677,-0.431C0.651,-0.398 0.617,-0.374 0.574,-0.361ZM0.263,-0.639L0.212,-0.385L0.435,-0.385C0.497,-0.385 0.547,-0.398 0.584,-0.425C0.621,-0.451 0.64,-0.489 0.64,-0.538C0.64,-0.572 0.627,-0.597 0.601,-0.614C0.574,-0.631 0.536,-0.639 0.487,-0.639L0.263,-0.639ZM0.393,-0.061C0.464,-0.061 0.518,-0.074 0.556,-0.101C0.594,-0.128 0.613,-0.166 0.613,-0.216C0.613,-0.255 0.6,-0.282 0.573,-0.299C0.546,-0.316 0.505,-0.324 0.45,-0.324L0.2,-0.324L0.148,-0.061L0.393,-0.061Z" style="fill:rgb(254,0,0);fill-rule:nonzero;stroke:rgb(254,0,0);stroke-width:0.03px;"/>
        </g>
        <g transform="matrix(172.8,0,0,192,837.336,666.499)">
            <path d="M0.202,-0.7L0.275,-0.7L0.135,-0L0.062,-0L0.202,-0.7Z" style="fill:rgb(254,0,0);fill-rule:nonzero;stroke:rgb(254,0,0);stroke-width:0.03px;"/>
        </g>
        <g transform="matrix(172.8,0,0,192,882.609,666.499)">
            <path d="M0.653,-0L0.57,-0L0.344,-0.33L0.172,-0.183L0.135,-0L0.062,-0L0.202,-0.7L0.275,-0.7L0.191,-0.282L0.679,-0.7L0.776,-0.7L0.398,-0.375L0.653,-0Z" style="fill:rgb(254,0,0);fill-rule:nonzero;stroke:rgb(254,0,0);stroke-width:0.03px;"/>
        </g>
        <g transform="matrix(172.8,0,0,192,998.558,666.499)">
            <path d="M0.262,-0.636L0.212,-0.387L0.575,-0.387L0.563,-0.324L0.2,-0.324L0.148,-0.064L0.569,-0.064L0.556,-0L0.062,-0L0.202,-0.7L0.682,-0.7L0.669,-0.636L0.262,-0.636Z" style="fill:rgb(254,0,0);fill-rule:nonzero;stroke:rgb(254,0,0);stroke-width:0.03px;"/>
        </g>
    </g>
    <g transform="matrix(0.25,0,0,0.25,-53.3213,-70.1293)">
        <g transform="matrix(128,0,0,128,289.072,451.125)">
            <path d="M0.227,-0L0.359,-0.634L0.125,-0.634L0.142,-0.716L0.705,-0.716L0.688,-0.634L0.455,-0.634L0.323,-0L0.227,-0Z" style="fill:rgb(0,113,189);fill-rule:nonzero;stroke:rgb(0,113,189);stroke-width:0.03px;stroke-linecap:square;"/>
        </g>
        <g transform="matrix(128,0,0,128,362.14,451.125)">
            <path d="M0.042,-0L0.192,-0.716L0.287,-0.716L0.225,-0.418L0.596,-0.418L0.658,-0.716L0.754,-0.716L0.604,-0L0.509,-0L0.579,-0.337L0.208,-0.337L0.138,-0L0.042,-0Z" style="fill:rgb(0,113,189);fill-rule:nonzero;stroke:rgb(0,113,189);stroke-width:0.03px;stroke-linecap:square;"/>
        </g>
        <g transform="matrix(128,0,0,128,449.457,451.125)">
            <path d="M0.045,-0L0.195,-0.716L0.711,-0.716L0.694,-0.634L0.273,-0.634L0.227,-0.412L0.637,-0.412L0.62,-0.33L0.209,-0.33L0.158,-0.081L0.608,-0.081L0.591,-0L0.045,-0Z" style="fill:rgb(0,113,189);fill-rule:nonzero;stroke:rgb(0,113,189);stroke-width:0.03px;stroke-linecap:square;"/>
        </g>
    </g>
</svg>
