<?xml version="1.0" encoding="UTF-8" standalone="no"?>
<!DOCTYPE svg PUBLIC "-//W3C//DTD SVG 1.1//EN" "http://www.w3.org/Graphics/SVG/1.1/DTD/svg11.dtd">
<svg width="100%" height="100%" viewBox="0 0 100 100" version="1.1" xmlns="http://www.w3.org/2000/svg" xmlns:xlink="http://www.w3.org/1999/xlink" xml:space="preserve" xmlns:serif="http://www.serif.com/" style="fill-rule:evenodd;clip-rule:evenodd;stroke-linejoin:round;stroke-miterlimit:2;">
    <path d="M31.451,76.965C25.884,76.965 22.637,78.986 22.637,82.73C22.637,86.475 25.884,88.495 31.451,88.495C37.018,88.495 40.266,86.475 40.266,82.73C40.266,78.986 37.018,76.965 31.451,76.965ZM71.716,77.301L60.542,77.301L60.542,78.777C60.542,78.777 61.7,78.903 62.006,78.945C62.312,78.987 62.726,79.269 62.726,79.689L62.726,85.586C62.726,86.245 62.21,86.479 61.976,86.509C61.742,86.539 60.534,86.659 60.534,86.659L60.534,88.099L71.716,88.099C75.336,88.099 78.391,86.419 78.391,82.652C78.391,78.885 74.948,77.301 71.716,77.301ZM52.88,77.301L59.814,77.301L59.814,78.741C59.814,78.741 58.606,78.861 58.372,78.891C58.139,78.921 57.623,79.155 57.623,79.815L57.623,88.099L52.264,88.099C52.008,88.099 51.636,88.027 51.42,87.763C51.204,87.499 45.553,80.109 45.553,80.109L45.553,85.724C45.553,86.144 45.967,86.425 46.273,86.467C46.502,86.499 47.211,86.589 47.551,86.632L47.736,86.655L47.736,88.099L40.794,88.099L40.794,86.659C40.794,86.659 42.001,86.539 42.235,86.509C42.469,86.479 42.985,86.245 42.985,85.586L42.985,79.689C42.985,79.269 42.571,78.987 42.265,78.945C41.959,78.903 40.802,78.777 40.802,78.777L40.802,77.301L48.344,77.301C48.6,77.301 48.972,77.373 49.188,77.637C49.404,77.901 55.055,85.292 55.055,85.292L55.055,79.677C55.055,79.257 54.641,78.975 54.335,78.933C54.029,78.891 52.88,78.765 52.88,78.765L52.88,77.301ZM96.496,86.497C95.938,86.437 95.65,85.904 95.578,85.796C95.506,85.688 90.479,78.015 90.281,77.727C90.083,77.439 89.687,77.319 89.483,77.319L81.138,77.319L81.138,78.783C81.138,78.783 82.908,78.957 83.13,78.981C83.352,79.005 83.58,79.413 83.58,79.551C83.58,79.689 83.502,79.821 83.454,79.905C83.406,79.989 79.861,85.778 79.675,86.066C79.489,86.353 79.177,86.485 78.949,86.503C78.721,86.521 77.539,86.628 77.539,86.628L77.539,88.099L84.418,88.099L84.418,86.676L83.026,86.499C82.714,86.443 82.626,86.092 82.626,86.004C82.626,85.916 82.674,85.78 82.762,85.644C82.782,85.613 82.983,85.288 83.282,84.804L89.922,84.804C90.241,85.288 90.455,85.613 90.475,85.644C90.563,85.78 90.611,85.916 90.611,86.004C90.611,86.092 90.523,86.443 90.211,86.499L88.625,86.628L88.625,88.099L97.951,88.099L97.951,86.676C97.951,86.676 97.054,86.557 96.496,86.497ZM20.824,78.933C20.968,78.917 22.184,78.741 22.184,78.741L22.184,77.317L13.551,77.317L13.551,78.741C13.551,78.741 14.766,78.917 14.91,78.933C15.054,78.949 15.694,79.093 15.694,79.813L15.694,81.62L9.034,81.62L9.034,79.813C9.034,79.093 9.674,78.949 9.818,78.933C9.962,78.917 11.178,78.741 11.178,78.741L11.178,77.317L2.545,77.317L2.545,78.741C2.545,78.741 3.76,78.917 3.904,78.933C4.048,78.949 4.688,79.093 4.688,79.813L4.688,85.632C4.688,86.352 4.048,86.496 3.904,86.512C3.76,86.528 2.545,86.663 2.545,86.663L2.545,88.087L11.178,88.087L11.178,86.663C11.178,86.663 9.962,86.528 9.818,86.512C9.674,86.496 9.034,86.352 9.034,85.632L9.034,83.812L15.694,83.812L15.694,85.632C15.694,86.352 15.054,86.496 14.91,86.512C14.766,86.528 13.551,86.663 13.551,86.663L13.551,88.087L22.184,88.087L22.184,86.663C22.184,86.663 20.968,86.528 20.824,86.512C20.68,86.496 20.04,86.352 20.04,85.632L20.04,79.813C20.04,79.093 20.68,78.949 20.824,78.933ZM31.451,86.506C30.364,86.506 27.628,86.537 27.628,82.73C27.628,78.923 30.364,78.955 31.451,78.955C32.539,78.955 35.275,78.923 35.275,82.73C35.275,86.537 32.539,86.506 31.451,86.506ZM70.628,86.052L66.917,86.052L66.917,79.381L70.644,79.381C72.02,79.381 73.396,79.845 73.396,82.66C73.396,85.476 72.308,86.052 70.628,86.052ZM84.447,82.916C85.435,81.315 86.489,79.605 86.489,79.605C86.489,79.605 87.619,81.315 88.676,82.916L84.447,82.916ZM22.573,70.486L27.692,75.285L61.478,75.285L48.84,67.415L22.573,70.486ZM17.422,75.27C17.422,75.27 16.83,73.35 15.79,72.31C14.75,71.27 6.736,63.256 5.552,62.072C4.368,60.888 2.049,58.585 2.049,55.225C2.049,51.866 4.88,49.466 8.304,48.09C11.727,46.715 67.397,24.127 71.524,22.399C75.651,20.671 81.586,18.016 84.274,16.736C86.961,15.456 94.576,11.853 94.828,11.717C95.08,11.581 95.216,11.505 95.336,11.505C95.456,11.505 95.568,11.609 95.568,11.745C95.568,11.881 95.48,12.069 95.452,12.161C95.424,12.253 93.12,19.104 91.297,21.439C89.473,23.775 88.577,24.767 79.843,27.838C71.108,30.909 12.783,51.386 11.311,51.962C9.839,52.538 6.512,53.561 6.512,56.025C6.512,58.009 8.495,59.544 9.071,60.056C9.647,60.568 25.324,75.269 25.324,75.269L17.422,75.27ZM71.924,54.673C71.837,54.693 16.654,65.031 16.654,65.031L21.437,69.454L46.961,66.239C46.961,66.239 46.481,66.063 46.481,65.567C46.481,65.071 46.953,64.887 47.225,64.839C47.497,64.791 60.358,62.904 61.87,62.68C63.382,62.456 65.869,61.936 67.965,59.728C70.06,57.521 72.124,55.073 72.204,54.977C72.284,54.881 72.296,54.821 72.296,54.773C72.296,54.725 72.236,54.625 72.116,54.625C72.084,54.625 72.012,54.653 71.924,54.673ZM11.575,60.288L15.678,64.104L36.962,60.096C36.962,60.096 36.41,59.748 36.41,59.346C36.41,58.944 36.734,58.68 37.124,58.602C37.514,58.525 68.373,52.538 70.292,52.202C72.212,51.866 74.74,51.306 76.803,48.81C78.867,46.315 80.868,42.981 80.934,42.879C81,42.777 81.024,42.717 81.024,42.657C81.024,42.597 80.988,42.447 80.832,42.447C80.676,42.447 80.592,42.483 80.437,42.543C80.281,42.603 11.575,60.288 11.575,60.288ZM10.543,59.376C10.543,59.376 9.119,58.057 8.927,57.865C8.735,57.673 8.32,56.953 8.32,56.441C8.32,55.929 8.415,54.697 10.575,54.025C12.735,53.353 63.142,36.764 65.893,35.901C68.645,35.037 84.894,29.646 87.785,28.35C88.397,28.086 88.505,28.022 88.601,28.022C88.697,28.022 88.821,28.082 88.821,28.23C88.821,28.378 88.753,28.49 88.701,28.574C88.649,28.658 85.866,34.373 84.234,36.173C82.602,37.972 81.138,39.244 78.163,39.988C75.187,40.732 28.804,53.209 28.504,53.293C28.204,53.377 27.856,53.653 27.856,54.025C27.856,54.637 28.36,54.685 28.36,54.685L10.543,59.376Z" style="fill:rgb(255,0,0);fill-rule:nonzero;"/>
</svg>
